<svg width="23" height="17" viewBox="0 0 23 17" fill="none" xmlns="http://www.w3.org/2000/svg">
<path d="M9.36356 1.04916C9.64607 1.33166 9.78167 1.67302 9.77037 2.07324C9.75813 2.47345 9.61075 2.81481 9.32825 3.09731L5.33788 7.08768L21.0875 7.08768C21.4877 7.08768 21.8234 7.22328 22.0946 7.49449C22.3649 7.76475 22.5 8.09999 22.5 8.5002C22.5 8.90042 22.3649 9.23612 22.0946 9.50733C21.8234 9.77759 21.4877 9.91272 21.0875 9.91272L5.33788 9.91272L9.36356 13.9384C9.64607 14.2209 9.78732 14.5566 9.78732 14.9455C9.78732 15.3335 9.64607 15.6687 9.36356 15.9512C9.08106 16.2337 8.74535 16.375 8.35644 16.375C7.96846 16.375 7.63323 16.2337 7.35072 15.9512L0.888445 9.48897C0.747192 9.34771 0.646902 9.19469 0.587576 9.0299C0.529192 8.8651 0.5 8.68854 0.5 8.5002C0.5 8.31187 0.529192 8.1353 0.587576 7.97051C0.646902 7.80571 0.747192 7.65269 0.888445 7.51144L7.38604 1.01385C7.645 0.754885 7.96846 0.625401 8.35644 0.625401C8.74535 0.625401 9.08106 0.766656 9.36356 1.04916Z" fill="white"/>
</svg>
