<svg width="22" height="16" viewBox="0 0 22 16" fill="none" xmlns="http://www.w3.org/2000/svg">
<path d="M13.1364 15.4508C12.8539 15.1683 12.7183 14.827 12.7296 14.4268C12.7419 14.0265 12.8892 13.6852 13.1717 13.4027L17.1621 9.41232H1.41252C1.01231 9.41232 0.676597 9.27672 0.405394 9.00551C0.135131 8.73525 0 8.40001 0 7.9998C0 7.59958 0.135131 7.26388 0.405394 6.99267C0.676597 6.72241 1.01231 6.58728 1.41252 6.58728H17.1621L13.1364 2.5616C12.8539 2.27909 12.7127 1.94338 12.7127 1.55447C12.7127 1.1665 12.8539 0.83126 13.1364 0.548756C13.4189 0.266252 13.7546 0.125 14.1436 0.125C14.5315 0.125 14.8668 0.266252 15.1493 0.548756L21.6116 7.01103C21.7528 7.15229 21.8531 7.30531 21.9124 7.4701C21.9708 7.6349 22 7.81146 22 7.9998C22 8.18813 21.9708 8.3647 21.9124 8.52949C21.8531 8.69429 21.7528 8.84731 21.6116 8.98856L15.114 15.4862C14.855 15.7451 14.5315 15.8746 14.1436 15.8746C13.7546 15.8746 13.4189 15.7333 13.1364 15.4508Z" fill="white"/>
</svg>
