<svg width="22" height="16" viewBox="0 0 22 16" fill="none" xmlns="http://www.w3.org/2000/svg">
<path d="M13.1364 15.451C12.8539 15.1685 12.7183 14.8272 12.7296 14.427C12.7419 14.0267 12.8892 13.6854 13.1717 13.4029L17.1621 9.41252H1.41252C1.01231 9.41252 0.676597 9.27691 0.405394 9.00571C0.135131 8.73545 0 8.40021 0 8C0 7.59978 0.135131 7.26407 0.405394 6.99287C0.676597 6.72261 1.01231 6.58748 1.41252 6.58748H17.1621L13.1364 2.56179C12.8539 2.27929 12.7127 1.94358 12.7127 1.55467C12.7127 1.1667 12.8539 0.831458 13.1364 0.548954C13.4189 0.26645 13.7546 0.125198 14.1436 0.125198C14.5315 0.125198 14.8668 0.26645 15.1493 0.548954L21.6116 7.01123C21.7528 7.15248 21.8531 7.30551 21.9124 7.4703C21.9708 7.6351 22 7.81166 22 8C22 8.18833 21.9708 8.3649 21.9124 8.52969C21.8531 8.69449 21.7528 8.84751 21.6116 8.98876L15.114 15.4864C14.855 15.7453 14.5315 15.8748 14.1436 15.8748C13.7546 15.8748 13.4189 15.7335 13.1364 15.451Z" fill="white"/>
</svg>
